<?xml version="1.0" encoding="UTF-8"?>
<svg width="128" height="128" viewBox="0 0 128 128" fill="none" xmlns="http://www.w3.org/2000/svg">
  <rect width="128" height="128" rx="24" fill="#4F46E5"/>
  <path d="M64 32C46.33 32 32 46.33 32 64C32 81.67 46.33 96 64 96C81.67 96 96 81.67 96 64C96 46.33 81.67 32 64 32ZM84.88 60H77.76C77.44 54.88 76.12 50 74.08 46.04C79.84 48.76 84.08 53.84 84.88 60ZM64 38.4C66.84 42.76 68.68 48.12 69.16 54H58.84C59.32 48.12 61.16 42.76 64 38.4ZM43.12 68C42.92 66.72 42.8 65.36 42.8 64C42.8 62.64 42.92 61.28 43.12 60H51.12C51 61.32 50.92 62.64 50.92 64C50.92 65.36 51 66.68 51.12 68H43.12ZM43.12 68H51.12C51.56 73.12 52.88 78 54.92 81.96C49.16 79.24 44.92 74.16 44.12 68H43.12ZM64 89.6C61.16 85.24 59.32 79.88 58.84 74H69.16C68.68 79.88 66.84 85.24 64 89.6ZM70.8 68H57.2C57.04 66.68 56.92 65.36 56.92 64C56.92 62.64 57.04 61.28 57.2 60H70.8C70.96 61.28 71.08 62.64 71.08 64C71.08 65.36 70.96 66.68 70.8 68ZM74.08 81.96C76.12 78 77.44 73.12 77.76 68H84.88C84.08 74.16 79.84 79.24 74.08 81.96ZM76.88 60C76.44 54.88 75.12 50 73.08 46.04C78.84 48.76 83.08 53.84 83.88 60H76.88Z" fill="white"/>
</svg> 